<svg xmlns="http://www.w3.org/2000/svg" width="28" height="28" fill="none" viewBox="0 0 28 28">
    <g clip-path="url(#clip0)">
        <path fill="#59422D" d="M16.818 11.808c-.405-.203-.57-.696-.367-1.101l.971-1.941c.203-.405.697-.568 1.101-.367.405.203.57.695.367 1.1l-.97 1.942c-.203.402-.692.57-1.102.367z"/>
        <path fill="#664B34" d="M10.08 11.44L9.11 9.5c-.203-.406-.039-.898.367-1.101.405-.201.898-.038 1.1.367l.971 1.94c.203.406.039.899-.367 1.102-.409.203-.899.035-1.1-.367z"/>
        <path fill="#E61E14" d="M22.258 28c-.454 0-.82-.367-.82-.82v-2.774l-2.534-1.268c-.406-.203-.57-.695-.367-1.1.203-.406.696-.568 1.1-.367l2.988 1.494c.278.14.453.423.453.733v3.282c0 .453-.367.82-.82.82zM25.54 24.719c-.454 0-.821-.367-.821-.82v-2.775l-2.578-1.289c-.405-.202-.57-.695-.367-1.1.203-.406.695-.568 1.1-.367l3.032 1.515c.278.14.453.423.453.734v3.281c0 .454-.367.82-.82.82zM27.18 19.797c-.454 0-.82-.367-.82-.82v-2.461h-2.598c-.453 0-.82-.367-.82-.82 0-.454.367-.821.82-.821h3.418c.453 0 .82.367.82.82v3.282c0 .453-.367.82-.82.82z"/>
        <path fill="#FD3018" d="M5.742 28c-.453 0-.82-.367-.82-.82v-3.282c0-.31.175-.594.453-.733l2.988-1.494c.406-.2.897-.039 1.1.367.203.405.039.898-.367 1.1l-2.534 1.267v2.775c0 .453-.366.82-.82.82zM2.46 24.719c-.452 0-.82-.367-.82-.82v-3.282c0-.31.176-.594.454-.734l3.031-1.515c.407-.2.898-.039 1.101.367.203.405.039.898-.367 1.1l-2.578 1.29v2.773c0 .454-.367.82-.82.82zM.82 19.797c-.453 0-.82-.367-.82-.82v-3.282c0-.453.367-.82.82-.82h3.282c.453 0 .82.367.82.82 0 .454-.367.82-.82.82H1.64v2.462c0 .453-.367.82-.82.82z"/>
        <path fill="#E61E14" d="M26.507 8.433c-.036-.606-.75-.98-1.247-.624-.77.476-1.673.525-2.477.132-.572-.27-1.217.167-1.181.803.136 1.094-.344 2.176-1.133 2.965-.446.378-.328 1.116.197 1.361.92.394 1.805.935 2.74 1.64.323.252.815.217 1.116-.114l.197-.246c1.398-1.762 1.98-4.175 1.788-5.917z"/>
        <path fill="#FD3018" d="M7.547 11.692c-.115-.098-.23-.213-.345-.344-.624-.73-.888-1.81-.787-2.62.036-.655-.633-1.105-1.198-.787-.77.393-1.755.328-2.428-.115-.565-.377-1.247.023-1.28.607-.179 1.787.379 4.128 1.772 5.884.066.099.148.18.214.263.164.18.393.278.623.278.164 0 .344-.049.492-.164.853-.64 1.772-1.197 2.74-1.64.246-.115.426-.345.46-.623.049-.28-.05-.558-.263-.739z"/>
        <path fill="#FD4E26" d="M24.39 13.398c-1.033-.77-2.034-1.378-3.035-1.837 0 0-2.116-.952-4.019-1.296-1.214-.197-2.182-.328-3.281-.312-.919 0-2.046.115-3.407.312-.985.18-2.297.574-3.446 1.083-.902.328-2.33 1.082-3.576 2.034-.033.033-.066.05-.099.082-.147.148-.246.361-.246.59v.263c0 .18.017.377.033.558.05.558.131 1.1.263 1.64.295 1.297.672 2.068 1.214 3.02.656 1.066 1.345 1.902 2.362 2.74 2.067 1.656 4.506 2.444 6.902 2.444 2.625 0 5.036-.985 6.792-2.445.886-.771 1.444-1.41 1.952-2.116.148-.213.28-.41.41-.624.148-.262.296-.508.427-.787.804-1.64.935-2.806 1.083-4.397v-.295c0-.263-.115-.509-.328-.657z"/>
        <path fill="#FD3018" d="M28 5.742C28 2.576 25.424 0 22.258 0h-1.64c-.46 0-.821.36-.821.82v4.922c0 2.284 1.881 4.102 4.101 4.102C26.01 9.844 28 8.134 28 5.742z"/>
        <path fill="#FD4E26" d="M7.383 0h-1.64C2.575 0 0 2.576 0 5.742 0 8.06 1.911 9.844 4.102 9.844c2.171 0 4.101-1.728 4.101-4.102V.82c0-.46-.36-.82-.82-.82z"/>
        <path fill="#FD3018" d="M24.719 14.055v.295c-.148 1.591-.28 2.756-1.083 4.397-.131.279-.279.525-.427.787-.13.214-.262.41-.41.624-.508.705-1.066 1.345-1.952 2.116-1.756 1.46-4.167 2.445-6.792 2.445V9.953c1.099-.016 2.067.115 3.28.312 1.904.344 4.02 1.296 4.02 1.296 1.001.46 2.002 1.066 3.036 1.837.213.148.328.394.328.657z"/>
        <path fill="#E61E14" d="M24.719 5.742c0 .46-.361.82-.82.82-.46 0-.82-.36-.82-.82 0-1.362-1.1-2.46-2.462-2.46h-.82V1.64h.82c2.264 0 4.102 1.837 4.102 4.101z"/>
        <path fill="#FD3018" d="M8.203 1.64v1.641h-.82c-1.362 0-2.461 1.1-2.461 2.461 0 .46-.361.82-.82.82-.46 0-.82-.36-.82-.82 0-2.264 1.837-4.101 4.1-4.101h.821zM14.875 14.055v1.64c0 .46-.36.82-.82.82-.46 0-.82-.36-.82-.82v-1.64c0-.46.36-.82.82-.82.46 0 .82.36.82.82z"/>
        <path fill="#E61E14" d="M16.756 16.275c-.32-.32-.32-.84 0-1.16l1.64-1.64c.321-.32.84-.32 1.16 0 .321.32.321.84 0 1.16l-1.64 1.64c-.32.32-.84.32-1.16 0z"/>
        <path fill="#FD3018" d="M10.084 16.275l-1.64-1.64c-.32-.32-.32-.84 0-1.16.32-.32.839-.32 1.16 0l1.64 1.64c.32.32.32.84 0 1.16-.32.32-.84.32-1.16 0z"/>
        <path fill="#E61E14" d="M14.875 14.055v1.64c0 .46-.36.82-.82.82v-3.28c.46 0 .82.36.82.82z"/>
    </g>
    <defs>
        <clipPath id="clip0">
            <path fill="#fff" d="M0 0H28V28H0z"/>
        </clipPath>
    </defs>
</svg>
