<svg xmlns="http://www.w3.org/2000/svg" width="28" height="28" fill="none" viewBox="0 0 28 28">
    <path fill="#2DE1FD" d="M22.066 14.108v-2.402c0-1.785 1.448-3.232 3.233-3.232H28v2.402c0 1.785-1.447 3.232-3.232 3.232l-1.39.875-1.312-.875z"/>
    <path fill="#0096FF" d="M22.066 14.108v2.402c0 1.785 1.448 3.232 3.233 3.232H28V17.34c0-1.785-1.447-3.232-3.232-3.232h-2.702z"/>
    <path fill="#2DE1FD" d="M19.5 9.983c-1.969-2.036-2.437-6.36-2.442-6.404-.045-.437-.428-.761-.864-.735-4.968.294-8.157 1.875-9.958 3.15C4.234 7.41 3.432 8.786 3.4 8.843c-.14.244-.145.54-.016.788.13.248.377.413.656.438l14.8 1.3c.023.003.047.004.071.004.314 0 .603-.18.74-.468.148-.309.088-.677-.15-.923z"/>
    <path fill="#0096FF" d="M16.697 24.129l-1.088-4.142c-.1-.383-.462-.64-.856-.61l-6.968.535c-.327.025-.607.241-.714.551-.106.31-.018.653.224.873.166.152 4.123 3.705 8.587 3.821h.022c.25 0 .487-.114.643-.31.16-.203.216-.469.15-.718z"/>
    <path fill="#9BF0FF" d="M22.887 14.108l-11.012 1.898L0 14.108c0-.062.007-.124.02-.184.019-.08.465-1.957 2.039-3.83 1.449-1.722 4.165-3.776 8.876-3.777.166 0 1.81.004 4.035.881 2.085.823 5.127 2.608 7.772 6.445.097.14.145.302.145.465z"/>
    <path fill="#2DE1FD" d="M22.887 14.108c0 .163-.048.325-.145.465-2.645 3.837-5.687 5.622-7.772 6.445-2.141.844-3.746.881-4.01.881h-.025c-4.712-.001-7.427-2.055-8.876-3.777-1.574-1.873-2.02-3.75-2.038-3.83-.014-.06-.021-.122-.021-.184h22.887z"/>
    <path fill="#17BCFE" d="M6.142 13.677c.546 0 .988-.442.988-.987 0-.546-.442-.988-.988-.988-.545 0-.988.442-.988.988 0 .545.443.987.988.987zM11.105 14.108h-1.64c-.012-.35-.054-.704-.126-1.065-.244-1.218-.752-2.047-.757-2.055-.242-.383-.126-.889.258-1.13.383-.241.89-.125 1.132.258.026.042.65 1.045.962 2.536.102.49.159.976.171 1.456z"/>
    <path fill="#0096FF" d="M11.105 14.108h-1.64c.043 1.18-.254 2.29-.886 3.316-.238.385-.118.89.268 1.128.134.083.283.122.43.122.275 0 .544-.138.7-.39.785-1.276 1.167-2.698 1.128-4.176z"/>
</svg>
