<svg xmlns="http://www.w3.org/2000/svg" width="28" height="28" fill="none" viewBox="0 0 28 28">
    <g clip-path="url(#clip0)">
        <path fill="#FF9B30" d="M17.194 11.933l1.62-1.224c.822-.623 1.305-1.595 1.305-2.626h1.743l-.508 3.271c-.26 1.67-1.698 2.902-3.388 2.902h-.772v-2.323zM10.806 11.933l-1.62-1.224c-.822-.623-1.305-1.595-1.305-2.626H6.138l.508 3.271c.26 1.67 1.698 2.902 3.388 2.902h.772v-2.323z"/>
        <path fill="#FF7224" d="M16.245 27.95L14 27.165l-2.245.783c-.583.203-1.191-.229-1.191-.846 0-1.014.517-1.958 1.372-2.503L14 23.283l2.064 1.317c.855.545 1.372 1.49 1.372 2.503 0 .617-.608 1.05-1.19.846z"/>
        <path fill="#FF9B30" d="M14 27.167l-2.245.782c-.583.203-1.191-.229-1.191-.846 0-1.014.517-1.958 1.372-2.503L14 23.283v3.884zM11.925.116c-.238-.186-.582-.144-.768.095-.186.238-.144.582.094.768 1.4 1.092 2.201 2.736 2.201 4.51v.064c0 .303.245.548.548.548.302 0 .547-.245.547-.548V5.49c0-2.114-.955-4.072-2.622-5.373z"/>
        <path fill="#FF7224" d="M16.843.21c-.186-.238-.53-.28-.768-.094-1.667 1.3-2.623 3.259-2.623 5.373v.064c0 .303.245.548.548.548.302 0 .547-.245.547-.548V5.49c0-1.774.803-3.418 2.201-4.51.239-.186.281-.53.095-.768z"/>
        <path fill="#D14A19" d="M11.893 22.052v1.664c0 .388.258.702.576.702h3.062c.318 0 .576-.314.576-.702v-1.664h-4.214z"/>
        <path fill="#FF7224" d="M10.806 19.58v2.07c0 .483.39.874.873.874h4.642c.482 0 .873-.391.873-.873v-2.07h-6.388z"/>
        <path fill="#FF7224" d="M14 22.052h-2.107v1.664c0 .388.258.702.576.702H14v-2.366z"/>
        <path fill="#FF9B30" d="M14 19.58h-3.194v2.07c0 .483.39.874.873.874H14v-2.943z"/>
        <path fill="#D14A19" d="M15.663 3.972c-.446-.5-1.037-.777-1.663-.777-.626 0-1.217.276-1.663.777-1.986 2.233-3.125 5.373-3.125 8.616v5.56c0 .905.734 1.64 1.64 1.64h6.296c.906 0 1.64-.735 1.64-1.64v-5.56c0-3.243-1.139-6.383-3.125-8.616z"/>
        <path fill="#FF7224" d="M14 3.195c-.626 0-1.217.276-1.663.777-1.986 2.233-3.126 5.373-3.126 8.616v5.56c0 .905.735 1.64 1.641 1.64H14V3.195z"/>
        <path fill="#295561" d="M11.549 4.12c-.303 0-.548.245-.548.547v.513c0 .302.245.547.548.547.302 0 .547-.245.547-.547v-.513c0-.302-.245-.547-.547-.547z"/>
        <path fill="#172B2E" d="M16.451 4.12c-.302 0-.547.245-.547.547v.513c0 .302.245.547.547.547.303 0 .548-.245.548-.547v-.513c0-.302-.245-.547-.548-.547z"/>
        <path fill="#D14A19" d="M7.382 1.48l-.73 2.445-.73-2.445C5.764.957 5.15.73 4.69 1.025c-.824.528-1.305 1.509-1.146 2.539l.6 3.885C4.318 8.566 5.193 9.4 6.25 9.575v.004c.135.021.269.03.402.03.132 0 .401-.034.401-.034C8.112 9.401 8.986 8.566 9.16 7.45l.6-3.885c.16-1.03-.321-2.011-1.146-2.539-.46-.294-1.075-.068-1.231.455z"/>
        <path fill="#FF7224" d="M6.652 3.925l-.73-2.445C5.764.957 5.15.73 4.69 1.025c-.824.528-1.305 1.509-1.146 2.539l.6 3.885C4.317 8.567 5.192 9.4 6.25 9.575v.004c.135.021.269.03.402.03V3.925z"/>
        <path fill="#D14A19" d="M22.079 1.48l-.73 2.445-.73-2.445c-.157-.523-.771-.75-1.232-.455-.824.528-1.305 1.509-1.146 2.539l.6 3.885c.173 1.117 1.047 1.952 2.106 2.126v.004c.134.021.269.03.402.03.132 0 .401-.034.401-.034 1.058-.174 1.933-1.009 2.106-2.126l.6-3.885c.16-1.03-.322-2.011-1.146-2.539-.46-.294-1.075-.068-1.231.455z"/>
        <path fill="#FF7224" d="M21.348 3.925l-.73-2.445c-.156-.523-.77-.75-1.23-.455-.825.528-1.306 1.509-1.147 2.539l.6 3.885c.173 1.118 1.047 1.952 2.106 2.126v.004c.134.021.269.03.402.03V3.925z"/>
    </g>
    <defs>
        <clipPath id="clip0">
            <path fill="#fff" d="M0 0H28V28H0z"/>
        </clipPath>
    </defs>
</svg>
