<svg xmlns="http://www.w3.org/2000/svg" width="28" height="28" fill="none" viewBox="0 0 28 28">
    <path fill="#725D57" d="M23.898 8.203c1.358 0 2.461-1.104 2.461-2.46 0-1.358-1.104-2.462-2.46-2.462H14c-.453 0-.82.367-.82.82 0 .454.367.82.82.82h9.898c.453 0 .82.369.82.821 0 .453-.367.82-.82.82-.453 0-.82.367-.82.82 0 .454.367.821.82.821z"/>
    <path fill="#725D57" d="M23.898 8.203C26.16 8.203 28 6.363 28 4.102 28 1.84 26.16 0 23.898 0H12.36c-.453 0-.82.367-.82.82 0 .454.367.82.82.82H23.9c1.357 0 2.46 1.105 2.46 2.462 0 1.357-1.104 2.46-2.46 2.46-.454 0-.82.367-.82.82 0 .454.366.821.82.821z"/>
    <path fill="#FFB64C" d="M0 17.227c0 1.46.295 2.892.82 4.156l3.38 1.695 4.003-1.695c0-1.772.952-3.385 2.379-4.238l-1.92-3.56-2.985-2.1-2.543-1.789c-.542.542-1.034 1.132-1.444 1.788C.623 13.141 0 15.11 0 17.227z"/>
    <path fill="#FF9100" d="M0 17.227c0 1.46.295 2.892.82 4.156l3.38 1.695 4.003-1.695c0-1.772.952-3.385 2.379-4.238l-1.92-3.56-2.985-2.1H1.69C.623 13.14 0 15.11 0 17.226z"/>
    <path fill="#53433F" d="M19.502 19.447c1.195-1.195 1.88-2.85 1.88-4.54 0-.454-.366-.82-.82-.82-.453 0-.82.366-.82.82 0 1.258-.51 2.49-1.4 3.38-.32.32-.32.84 0 1.16.32.32.84.32 1.16 0zM16.22 19.447c1.012-1.01 1.663-2.349 1.835-3.767.055-.45-.266-.86-.716-.914-.46-.052-.859.267-.913.717-.128 1.055-.613 2.051-1.365 2.804-.32.32-.32.84 0 1.16.32.32.84.32 1.16 0zM12.94 19.447c1.009-1.01 1.66-2.345 1.832-3.762.056-.45-.265-.859-.714-.913-.458-.058-.859.265-.913.715-.13 1.054-.614 2.049-1.366 2.8-.32.32-.32.84 0 1.16.32.32.84.32 1.16 0z"/>
    <path fill="#FF9100" d="M3.134 9.696l7.448 7.449c.738-.46 1.662-.739 2.598-.739h1.64l1.51-4.922.13-.41-1.64-4.511h-4.156c-2.937 0-5.61 1.197-7.53 3.133z"/>
    <path fill="#FF641A" d="M4.922 11.484l5.66 5.66c.738-.459 1.662-.738 2.598-.738h1.64l1.51-4.922H4.922z"/>
    <path fill="#FFB64C" d="M14.82 6.563v9.843h2.461c3.495 0 6.585-2.001 8.078-4.922.64-1.23 1-2.625 1-4.101 0-.46-.36-.82-.82-.82H14.82z"/>
    <path fill="#FF9100" d="M25.359 11.484H14.82v4.922h2.461c3.495 0 6.585-2.001 8.078-4.922z"/>
    <path fill="#FF641A" d="M8.203 21.383c0 2.714 2.263 4.976 4.977 4.976h2.46c.453 0 .82-.367.82-.82 0-.453.368-.82.821-.82.454 0 .82.367.82.82 0 .289-.059.563-.15.82h.97c1.358 0 2.462-1.104 2.462-2.46 0-.454.367-.82.82-.82.454 0 .82.366.82.82 0 2.26-1.84 4.101-4.101 4.101h-8.258c-4.427 0-8.23-2.767-9.841-6.617h7.38z"/>
    <path fill="#725D57" d="M18.922 11.484c.453 0 .82-.367.82-.82 0-.453-.367-.82-.82-.82-.453 0-.82.367-.82.82 0 .453.367.82.82.82z"/>
</svg>
