<svg xmlns="http://www.w3.org/2000/svg" width="1440" height="250" fill="none" viewBox="0 0 1440 250">
    <mask id="yei4o5911a" width="1440" height="250" x="0" y="0" maskUnits="userSpaceOnUse">
        <path fill="#C4C4C4" d="M0 0H1440V250H0z"/>
    </mask>
    <g mask="url(#yei4o5911a)">
        <path fill="#0C80EF" d="M0 0H1440V288H0z"/>
        <path fill="#fff" fill-opacity=".05" fill-rule="evenodd" d="M1225.06-331.362c69.85 13.815 93.24 102.335 151.58 143.229 60.12 42.15 174.74 25.752 191.54 97.314 17.32 73.754-93.91 113.724-125.87 182.394-25.71 55.234.41 128.172-39.91 173.812-43.34 49.07-112.53 80.963-177.34 72.151-62.98-8.563-94.21-78.473-145.51-116.049-51.07-37.402-139.031-41.584-153.833-103.195-15.033-62.579 73.141-103.506 89.203-165.828 17.96-69.723-35.03-152.756 7.79-210.593 43.79-59.15 130.22-87.498 202.35-73.235zM413.93 368.896c-59.162 39.625-138.296-6.427-208.462 5.905-72.32 12.711-141.772 105.353-204.254 66.632-64.396-39.907-14.007-146.823-39.966-217.979-20.88-57.232-90.921-90.341-94.688-151.119-4.05-65.344 22.326-136.825 74.386-176.422 50.585-38.476 122.103-11.126 184.95-20.832 62.557-9.662 127.711-68.904 181.744-35.804 54.88 33.619 21.471 124.908 54.184 180.332 36.598 62.005 132.783 83.247 143.401 154.423 10.858 72.792-30.211 153.952-91.295 194.864z" clip-rule="evenodd"/>
        <path fill="#fff" fill-opacity=".05" fill-rule="evenodd" d="M160.929 386.896c-59.161 39.625-138.295-6.427-208.461 5.905-72.32 12.711-141.772 105.353-204.254 66.632-64.396-39.907-14.007-146.823-39.966-217.979-20.88-57.232-90.921-90.341-94.688-151.119-4.05-65.344 22.326-136.825 74.386-176.422 50.585-38.476 122.103-11.126 184.95-20.832 62.557-9.662 127.711-68.904 181.743-35.804 54.881 33.619 21.472 124.908 54.185 180.332 36.598 62.005 132.783 83.247 143.401 154.423 10.858 72.792-30.211 153.952-91.296 194.864z" clip-rule="evenodd"/>
    </g>
</svg>
