<svg xmlns="http://www.w3.org/2000/svg" width="896" height="120" fill="none" viewBox="0 0 896 120">
    <mask id="ricecdqv3a" width="896" height="120" x="0" y="0" maskUnits="userSpaceOnUse">
        <path fill="#C4C4C4" d="M0 0H896V120H0z"/>
    </mask>
    <g mask="url(#ricecdqv3a)">
        <rect width="896" height="120" fill="#0C80EF" rx="8"/>
        <path fill="#fff" fill-opacity=".05" fill-rule="evenodd" d="M953.056-363.362c69.854 13.815 93.244 102.335 151.584 143.229 60.12 42.15 174.74 25.752 191.54 97.314 17.32 73.754-93.91 113.724-125.87 182.394-25.71 55.234.41 128.172-39.91 173.812-43.34 49.07-112.53 80.963-177.344 72.151-62.975-8.563-94.207-78.473-145.51-116.049-51.066-37.402-139.027-41.584-153.829-103.195-15.033-62.579 73.141-103.506 89.2-165.829 17.965-69.722-35.027-152.755 7.794-210.592 43.793-59.15 130.223-87.498 202.345-73.235zM414.93 336.896c-59.162 39.625-138.296-6.427-208.462 5.905-72.32 12.711-141.772 105.353-204.254 66.632-64.396-39.907-14.007-146.823-39.966-217.979-20.88-57.232-90.921-90.341-94.688-151.119-4.05-65.344 22.326-136.825 74.386-176.422 50.585-38.476 122.103-11.126 184.95-20.832 62.557-9.662 127.711-68.904 181.744-35.804 54.88 33.619 21.471 124.908 54.184 180.332 36.598 62.005 132.783 83.247 143.401 154.423 10.858 72.792-30.211 153.952-91.295 194.864z" clip-rule="evenodd"/>
        <path fill="#fff" fill-opacity=".05" fill-rule="evenodd" d="M161.929 354.896c-59.161 39.625-138.295-6.427-208.461 5.905-72.32 12.711-141.772 105.353-204.254 66.632-64.396-39.907-14.007-146.823-39.966-217.979-20.88-57.232-90.921-90.341-94.688-151.119-4.05-65.344 22.326-136.825 74.386-176.422 50.585-38.476 122.103-11.126 184.95-20.832 62.557-9.662 127.711-68.904 181.743-35.804C110.52-141.104 77.112-49.815 109.825 5.609c36.598 62.005 132.783 83.247 143.401 154.423 10.858 72.792-30.211 153.952-91.296 194.864z" clip-rule="evenodd"/>
    </g>
</svg>
