<svg xmlns="http://www.w3.org/2000/svg" width="60" height="60" fill="none" viewBox="0 0 60 60">
    <g fill="#fff" clip-path="url(#clip0)">
        <path d="M30 11.947c.646 0 1.171-.525 1.171-1.172v-5.97c0-.647-.524-1.171-1.172-1.171-.647 0-1.171.524-1.171 1.171v5.97c0 .647.524 1.172 1.171 1.172zM21.189 13.872c.223.353.603.547.992.547.214 0 .43-.058.624-.18.548-.346.712-1.07.367-1.617l-3.123-4.954c-.345-.547-1.068-.712-1.616-.367-.547.345-.711 1.07-.366 1.617l3.122 4.954zM37.198 14.239c.194.122.41.18.623.18.39 0 .77-.194.993-.548l3.119-4.954c.345-.547.18-1.27-.367-1.616-.549-.345-1.272-.18-1.617.368l-3.119 4.954c-.344.548-.18 1.27.368 1.616z"/>
        <path d="M59.622 31.223l-2.036-3.598c-.319-.563-1.034-.761-1.597-.442s-.761 1.034-.442 1.597l2.035 3.595c.102.181.075.355.05.443-.023.085-.09.24-.261.336l-3.139 1.738c-.278.154-.642.057-.794-.211l-.797-1.41c-.004-.007-.008-.013-.01-.019l-8.243-14.578c-.102-.179-.076-.35-.051-.438.023-.083.089-.238.26-.333l3.143-1.739c.282-.156.637-.061.791.212l1.837 3.245c.319.564 1.034.762 1.597.443s.761-1.034.443-1.597l-1.836-3.244c-.783-1.388-2.563-1.886-3.967-1.11l-3.141 1.739c-.68.375-1.171.996-1.383 1.749-.2.709-.129 1.45.199 2.099l-1.73.502c-.738.213-1.185.329-1.434.329h-.003c-.17-.001-.357-.066-.89-.268-.24-.091-.541-.205-.91-.334l-3.067-1.072c-1.696-.592-2.46-.56-3.569-.46l-5.228.469c-2.384.21-3.903.748-4.742 1.681l-2.98-.863c.32-.647.39-1.38.192-2.083-.212-.752-.703-1.373-1.382-1.749l-3.14-1.74c-1.405-.776-3.186-.278-3.969 1.11L.381 31.221c-.387.682-.483 1.475-.27 2.233.212.753.703 1.375 1.382 1.75l3.14 1.74c.449.247.937.365 1.418.365 1.022 0 2.016-.532 2.55-1.475l.332-.587c.906.399 1.666.978 2.184 1.663-.506.592-.825 1.322-.914 2.115-.118 1.05.178 2.08.835 2.9.65.815 1.581 1.328 2.622 1.449-.11 1.04.187 2.06.839 2.872.673.842 1.625 1.333 2.62 1.45-.11 1.038.187 2.057.837 2.87.65.815 1.581 1.33 2.623 1.45-.11 1.042.187 2.062.839 2.874.776.971 1.923 1.477 3.08 1.476.864 0 1.734-.281 2.46-.861l2.454-1.964c.195-.155.372-.327.531-.512l1.401 1.12c.725.578 1.593.859 2.456.859 1.158 0 2.306-.507 3.084-1.478.41-.513.669-1.097.786-1.701.41.142.843.215 1.284.215.148 0 .296-.008.446-.025 1.05-.116 1.989-.633 2.641-1.45.653-.814.95-1.834.84-2.874.995-.116 1.947-.607 2.623-1.449.672-.841.942-1.877.836-2.872 1.04-.122 1.97-.635 2.62-1.447.657-.819.955-1.847.838-2.896-.088-.796-.407-1.528-.914-2.121.517-.685 1.276-1.265 2.181-1.663l.333.588c.534.943 1.527 1.474 2.55 1.474.481 0 .97-.118 1.42-.366l3.137-1.739c.679-.375 1.17-.995 1.382-1.747.215-.758.121-1.55-.265-2.235zM6.562 34.68c-.153.27-.517.366-.794.212l-3.14-1.739c-.172-.094-.237-.25-.26-.334-.025-.088-.051-.26.052-.442l9.049-16.002c.103-.184.298-.287.501-.287.099 0 .2.024.292.076l3.139 1.738v.001c.173.095.238.25.261.334.025.086.05.258-.052.44L6.562 34.68zm8.551 6.03c-.33.265-.747.385-1.174.337-.427-.047-.807-.255-1.07-.585-.266-.331-.385-.748-.337-1.175.048-.424.256-.803.588-1.067l4.387-3.507c.689-.55 1.697-.437 2.247.25.264.332.384.748.336 1.173-.047.424-.256.802-.586 1.065l-.02.018-4.37 3.49v.002zm1.215 4.07c-.265-.329-.384-.744-.337-1.169.047-.425.256-.805.586-1.07l.001-.001 6.32-5.05c.689-.549 1.697-.437 2.247.252.264.33.384.746.336 1.17-.047.426-.256.806-.587 1.071l-6.318 5.047c-.69.55-1.697.44-2.248-.25zm4.53 4.91c-.426-.047-.806-.256-1.07-.587-.265-.33-.384-.747-.337-1.172.047-.425.255-.804.587-1.07l4.374-3.493c.005-.005.01-.008.016-.012.686-.55 1.694-.438 2.245.249.265.33.384.748.336 1.174-.048.425-.256.803-.588 1.067l-4.387 3.507c-.331.265-.75.384-1.176.337zm7.678.951c-.047.425-.256.805-.587 1.07l-2.454 1.963c-.69.55-1.697.44-2.248-.249-.264-.33-.384-.745-.337-1.17.047-.426.255-.806.586-1.07l2.454-1.961.004-.003c.689-.55 1.697-.437 2.247.25.263.33.383.746.335 1.17zm18.595-10.18c-.264.331-.644.539-1.071.586-.426.048-.844-.072-1.174-.336l-.001-.001-3.136-2.506c-.506-.404-1.243-.321-1.647.184-.404.506-.321 1.243.184 1.647l3.135 2.505c.687.55.8 1.556.253 2.24-.552.689-1.56.8-2.248.25l-3.401-2.715c-.506-.403-1.243-.32-1.647.185-.404.506-.32 1.243.185 1.647l3.4 2.713c.331.266.54.646.587 1.071.047.425-.072.84-.34 1.173-.263.33-.643.538-1.07.586-.426.047-.844-.072-1.174-.336l-1.692-1.353-.009-.008-1.43-1.143-.267-.214c-.506-.404-1.243-.322-1.647.184-.05.063-.094.13-.13.2-.169.33-.166.72-.007 1.046.074.15.18.289.32.4l1.702 1.362c.683.551.795 1.554.248 2.238-.55.688-1.559.8-2.247.251l-1.93-1.542c.08-1.003-.217-1.982-.846-2.768-.39-.488-.875-.858-1.407-1.106.39-.54.637-1.177.714-1.86.118-1.05-.178-2.08-.836-2.902-.39-.487-.875-.856-1.406-1.103.39-.543.638-1.18.715-1.864.116-1.047-.18-2.075-.836-2.895-1.128-1.41-3.034-1.838-4.621-1.165-.127-.583-.387-1.133-.77-1.612-1.357-1.696-3.842-1.973-5.54-.618l-3.138 2.508c-.71-.906-1.674-1.657-2.814-2.192l6.454-11.417 3.437.996c.016.184.046.377.095.582.832 3.42 3.982 5.014 8.22 4.16 3.57-.718 5.04.352 7.968 2.484.303.221.62.451.95.688 2.105 1.51 4.355 3.286 5.864 4.49l3.803 3.04c.33.263.539.643.586 1.069.047.425-.072.84-.338 1.172zm-.036-5.072l-2.553-2.04c-1.53-1.22-3.811-3.02-5.961-4.563-.326-.233-.637-.46-.936-.677-3.035-2.21-5.23-3.808-9.81-2.887-1.402.283-4.742.613-5.48-2.416-.103-.428.002-.575.047-.637.157-.219.787-.75 3.254-.969l5.234-.468c.853-.078 1.28-.117 2.583.338l3.066 1.072c.341.119.614.222.854.313 1.477.56 1.868.56 3.808-.002l2.26-.655 6.447 11.4c-1.141.536-2.105 1.286-2.813 2.191z"/>
        <path d="M53.973 24.797c.647 0 1.172-.527 1.172-1.174 0-.647-.525-1.172-1.172-1.172-.647 0-1.172.525-1.172 1.172v.003c0 .648.525 1.17 1.172 1.17z"/>
    </g>
    <defs>
        <clipPath id="clip0">
            <path fill="#fff" d="M0 0H60V60H0z"/>
        </clipPath>
    </defs>
</svg>
