<svg xmlns="http://www.w3.org/2000/svg" width="14" height="18" fill="none" viewBox="0 0 14 18">
    <path fill="#0C80EF" fill-rule="evenodd" d="M.532 5.095C-.55 7.712.05 10.723 2.054 12.725l4.394 4.402c.146.147.345.23.552.23.208 0 .406-.083.552-.23l4.395-4.402c2.004-2.002 2.604-5.013 1.521-7.63C12.385 2.478 9.832.772 7 .772S1.615 2.478.532 5.095zM10.85 3.928c2.126 2.127 2.126 5.574 0 7.7L7 15.478l-3.85-3.85c-2.126-2.126-2.126-5.573 0-7.7 2.127-2.126 5.574-2.126 7.7 0zM7 10.89c-1.718 0-3.11-1.393-3.11-3.111C3.89 6.06 5.281 4.667 7 4.667s3.111 1.393 3.111 3.11c0 1.72-1.393 3.112-3.11 3.112zm1.556-3.111c0 .859-.697 1.555-1.556 1.555-.859 0-1.555-.696-1.555-1.555 0-.86.696-1.556 1.555-1.556.86 0 1.556.697 1.556 1.556z" clip-rule="evenodd"/>
</svg>
