<svg xmlns="http://www.w3.org/2000/svg" width="60" height="60" fill="none" viewBox="0 0 60 60">
    <g fill="#fff" clip-path="url(#clip0)">
        <path d="M47.13 16.357h-.01c-.507-.005-1.03-.31-1.511-.885-.416-.496-1.155-.561-1.651-.145-.496.415-.561 1.154-.145 1.65.619.74 1.35 1.257 2.125 1.521v1.424c0 .647.524 1.172 1.171 1.172.648 0 1.172-.525 1.172-1.172v-1.413c1.35-.467 2.364-1.757 2.364-3.324 0-1.938-1.577-3.516-3.516-3.516-.646 0-1.171-.525-1.171-1.171 0-.641.52-1.167 1.16-1.172h.008c.418 0 .857.211 1.27.612.466.45 1.208.438 1.658-.027.45-.465.438-1.207-.027-1.657-.601-.582-1.204-.909-1.746-1.085v-1.31c0-.647-.524-1.171-1.172-1.171-.647 0-1.171.524-1.171 1.171v1.333c-1.353.49-2.324 1.79-2.324 3.306 0 1.938 1.577 3.515 3.515 3.515.647 0 1.172.526 1.172 1.172 0 .65-.528 1.172-1.17 1.172z"/>
        <path d="M2 6.688l2.688-2.687V52.97H1.171C.525 52.969 0 53.493 0 54.14c0 .647.525 1.172 1.172 1.172h3.516v3.515c0 .647.524 1.172 1.171 1.172s1.172-.525 1.172-1.172v-3.516h19.336c.647 0 1.172-.524 1.172-1.171 0-.648-.525-1.172-1.172-1.172H7.031V32.928l11.325-8.548 11.041 6.625c.461.276 1.052.204 1.432-.176l8.032-8.032c2.31 1.932 5.198 2.984 8.248 2.984C54.217 25.781 60 20 60 12.891 60 5.783 54.217 0 47.11 0 40 0 34.218 5.783 34.218 12.89c0 3.051 1.052 5.939 2.984 8.25l-7.385 7.384-10.934-6.56c-.41-.246-.927-.219-1.309.07L7.031 29.99V4.001l2.687 2.687c.458.458 1.2.458 1.658 0 .457-.457.457-1.2 0-1.657L6.688.343c-.458-.457-1.2-.457-1.657 0L.343 5.031c-.457.457-.457 1.2 0 1.657.458.458 1.2.458 1.658 0zm34.563 6.203c0-5.816 4.73-10.547 10.546-10.547 5.816 0 10.547 4.731 10.547 10.547 0 5.815-4.731 10.546-10.547 10.546-5.828 0-10.547-4.715-10.547-10.546zM54.97 48.624c-.458-.457-1.2-.457-1.658 0-.458.458-.458 1.2 0 1.658l2.687 2.687H36.914c-.647 0-1.172.524-1.172 1.172 0 .647.525 1.172 1.172 1.172H56l-2.687 2.686c-.458.458-.458 1.2 0 1.658.458.458 1.2.457 1.657 0l4.688-4.688c.457-.457.457-1.2 0-1.657l-4.688-4.688z"/>
        <path d="M12.89 48.281c.648 0 1.172-.524 1.172-1.172v-1.172h1.172c.648 0 1.172-.524 1.172-1.171V34.688c0-.648-.524-1.172-1.172-1.172h-1.171v-1.172c0-.647-.525-1.172-1.172-1.172-.648 0-1.172.525-1.172 1.172v1.172h-1.172c-.647 0-1.172.524-1.172 1.172v10.078c0 .647.525 1.172 1.172 1.172h1.172v1.171c0 .648.524 1.172 1.172 1.172zM11.72 35.86h2.344v7.735h-2.344v-7.735zM24.61 50.625c.646 0 1.171-.525 1.171-1.172v-1.172h1.172c.647 0 1.172-.524 1.172-1.172V37.031c0-.647-.525-1.172-1.172-1.172h-1.172v-1.172c0-.647-.524-1.171-1.172-1.171-.647 0-1.172.524-1.172 1.172v1.171h-1.171c-.647 0-1.172.525-1.172 1.172V47.11c0 .648.524 1.172 1.172 1.172h1.172v1.172c0 .647.524 1.172 1.171 1.172zm-1.172-12.422h2.343v7.734h-2.343v-7.734zM36.328 48.281c.647 0 1.172-.524 1.172-1.172v-1.172h1.172c.647 0 1.172-.524 1.172-1.171V34.688c0-.648-.525-1.172-1.172-1.172H37.5v-1.172c0-.647-.525-1.172-1.172-1.172-.647 0-1.172.525-1.172 1.172v1.172h-1.172c-.647 0-1.172.524-1.172 1.172v10.078c0 .647.525 1.172 1.172 1.172h1.172v1.171c0 .648.525 1.172 1.172 1.172zM35.156 35.86H37.5v7.735h-2.344v-7.735zM48.047 45.938c.647 0 1.172-.525 1.172-1.172v-1.172h1.172c.647 0 1.172-.525 1.172-1.172V32.344c0-.647-.525-1.172-1.172-1.172h-1.172V30c0-.647-.525-1.172-1.172-1.172-.647 0-1.172.525-1.172 1.172v1.172h-1.172c-.647 0-1.172.525-1.172 1.172v10.078c0 .647.525 1.172 1.172 1.172h1.172v1.172c0 .647.525 1.172 1.172 1.172zm-1.172-12.422h2.344v7.734h-2.344v-7.734zM31.64 55.313c.648 0 1.172-.525 1.172-1.172 0-.648-.524-1.172-1.171-1.172-.648 0-1.172.524-1.172 1.172 0 .647.524 1.172 1.172 1.172z"/>
    </g>
    <defs>
        <clipPath id="clip0">
            <path fill="#fff" d="M0 0H60V60H0z"/>
        </clipPath>
    </defs>
</svg>
