<svg xmlns="http://www.w3.org/2000/svg" width="60" height="60" fill="none" viewBox="0 0 60 60">
    <path fill="#fff" d="M8.906 12.422c.647 0 1.172-.525 1.172-1.172 0-.647-.525-1.172-1.172-1.172-.647 0-1.172.525-1.172 1.172 0 .647.525 1.172 1.172 1.172zM15.938 26.484c-.648 0-1.172.525-1.172 1.172v4.688c0 .647.524 1.172 1.171 1.172h1.66c.273.958.658 1.882 1.153 2.762l-1.18 1.18c-.458.457-.458 1.2 0 1.657l3.315 3.314c.458.458 1.2.457 1.657 0l1.179-1.179c.88.495 1.804.88 2.763 1.152v1.66c0 .648.525 1.172 1.172 1.172h4.688c.647 0 1.172-.524 1.172-1.172v-1.66c.959-.272 1.883-.657 2.763-1.152l1.179 1.18c.457.457 1.2.457 1.657 0l3.315-3.315c.458-.457.458-1.2 0-1.657l-1.18-1.18c.495-.88.88-1.804 1.152-2.762h1.66c.648 0 1.172-.525 1.172-1.172v-4.688c0-.647-.524-1.171-1.172-1.171h-1.66c-.272-.959-.657-1.883-1.152-2.763l1.18-1.18c.458-.457.458-1.2 0-1.657l-3.315-3.315c-.457-.458-1.2-.458-1.658 0l-1.179 1.18c-.88-.495-1.804-.88-2.762-1.152v-1.66c0-.648-.525-1.172-1.172-1.172h-4.688c-.647 0-1.172.524-1.172 1.171v1.66c-.958.273-1.882.658-2.763 1.153l-1.179-1.18c-.457-.458-1.2-.458-1.657 0l-3.315 3.315c-.458.457-.458 1.2 0 1.658l1.18 1.179c-.495.88-.88 1.804-1.152 2.762h-1.66zm3.728 1.405c.266-1.309.785-2.553 1.542-3.699.307-.464.244-1.081-.15-1.475l-1.002-1.002 1.658-1.657 1.001 1.002c.394.395 1.01.457 1.475.15 1.146-.757 2.39-1.276 3.7-1.542.546-.11.938-.59.938-1.148v-1.409h2.344v1.409c0 .557.393 1.037.939 1.148 1.309.266 2.553.785 3.699 1.542.465.307 1.081.244 1.475-.15l1.002-1.002 1.657 1.658-1.002 1.001c-.394.394-.457 1.01-.15 1.475.758 1.146 1.276 2.39 1.542 3.7.11.546.59.938 1.148.938h1.409v2.344h-1.409c-.557 0-1.038.393-1.148.939-.266 1.31-.785 2.553-1.541 3.697-.308.465-.246 1.082.148 1.476l1.003 1.002-1.658 1.658-1.002-1.003c-.393-.393-1.01-.456-1.475-.148-1.142.756-2.387 1.275-3.698 1.54-.547.112-.94.592-.94 1.15v1.408h-2.343v-1.409c0-.557-.392-1.038-.938-1.148-1.312-.267-2.557-.785-3.699-1.541-.465-.308-1.081-.246-1.476.148l-1.001 1.002-1.658-1.657 1.003-1.003c.394-.394.456-1.01.148-1.475-.756-1.144-1.275-2.388-1.54-3.697-.112-.547-.592-.94-1.149-.94h-1.409v-2.343h1.409c.557 0 1.037-.392 1.148-.939z"/>
    <path fill="#fff" d="M30.021 33.467h-.01c-.508-.005-1.03-.311-1.512-.886-.415-.496-1.155-.56-1.65-.145-.497.416-.562 1.155-.146 1.65.62.74 1.35 1.257 2.125 1.522v1.423c0 .647.525 1.172 1.172 1.172.647 0 1.172-.525 1.172-1.172v-1.413c1.35-.467 2.364-1.757 2.364-3.324 0-1.938-1.578-3.515-3.516-3.515-.646 0-1.172-.526-1.172-1.172 0-.641.521-1.167 1.16-1.172h.009c.417 0 .856.212 1.27.613.466.45 1.208.438 1.658-.027.45-.466.438-1.207-.027-1.658-.602-.582-1.204-.908-1.746-1.084v-1.31c0-.647-.525-1.172-1.172-1.172-.647 0-1.172.525-1.172 1.172V24.3c-1.352.491-2.323 1.79-2.323 3.306 0 1.939 1.577 3.516 3.515 3.516.646 0 1.172.525 1.172 1.171 0 .65-.526 1.173-1.17 1.173zM58.828 0H39.375c-.647 0-1.172.525-1.172 1.172v12.422c0 .647.525 1.172 1.172 1.172h6.21v2.343h-1.17c-.648 0-1.173.525-1.173 1.172 0 .647.525 1.172 1.172 1.172h9.375c.647 0 1.172-.525 1.172-1.172 0-.647-.525-1.172-1.172-1.172h-1.172v-2.343h6.211c.647 0 1.172-.525 1.172-1.172V1.172C60 .525 59.475 0 58.828 0zm-8.555 17.11H47.93v-2.344h2.343v2.343zm7.383-4.688h-17.11V2.344h17.11v10.078zM13.594 0H4.219c-.647 0-1.172.525-1.172 1.172v14.765c0 .648.525 1.172 1.172 1.172h9.375c.647 0 1.172-.524 1.172-1.172V1.172C14.766.525 14.24 0 13.594 0zm-1.172 14.766H5.39V2.344h7.03v12.422zM58.828 52.969h-1.172v-8.907c0-.647-.524-1.171-1.172-1.171H41.72c-.648 0-1.172.524-1.172 1.172v8.906h-1.172c-.647 0-1.172.524-1.172 1.172v2.343c0 1.939 1.577 3.516 3.516 3.516h14.765C58.423 60 60 58.423 60 56.484v-2.343c0-.648-.525-1.172-1.172-1.172zm-15.937-7.735h12.422v7.735H42.89v-7.735zm14.765 11.25c0 .646-.526 1.172-1.172 1.172H41.72c-.646 0-1.172-.526-1.172-1.172v-1.172h17.11v1.172zM24.14 8.906c0 .647.525 1.172 1.172 1.172h6.546l-.343.343c-.457.458-.457 1.2 0 1.658.458.457 1.2.457 1.657 0l2.344-2.344c.458-.458.458-1.2 0-1.657l-2.343-2.344c-.458-.458-1.2-.458-1.658 0-.457.457-.457 1.2 0 1.657l.343.343h-6.546c-.647 0-1.171.525-1.171 1.172zM51.094 24.14c-.647 0-1.172.525-1.172 1.172v6.546l-.343-.343c-.458-.457-1.2-.457-1.658 0-.457.458-.457 1.2 0 1.657l2.344 2.344c.229.229.529.343.829.343.3 0 .6-.114.828-.343l2.344-2.344c.458-.457.458-1.2 0-1.657-.458-.457-1.2-.457-1.657 0l-.343.343v-6.546c0-.647-.525-1.171-1.172-1.171zM28.485 50.265c-.458-.457-1.2-.457-1.657 0l-2.344 2.344c-.458.457-.458 1.2 0 1.657l2.343 2.344c.458.458 1.2.458 1.658 0 .457-.458.457-1.2 0-1.657l-.343-.344h6.546c.647 0 1.171-.524 1.171-1.172 0-.647-.524-1.171-1.172-1.171h-6.545l.343-.344c.458-.457.458-1.2 0-1.657zM8.906 35.86c.648 0 1.172-.525 1.172-1.172v-6.546l.343.343c.458.458 1.2.458 1.658 0 .457-.458.457-1.2 0-1.657l-2.344-2.344c-.458-.458-1.2-.458-1.657 0l-2.344 2.344c-.458.457-.458 1.2 0 1.657.458.457 1.2.457 1.657 0l.343-.343v6.546c0 .647.525 1.171 1.172 1.171zM10.898 60c.648 0 1.172-.525 1.172-1.172 0-.647-.524-1.172-1.172-1.172-.647 0-1.171.525-1.171 1.172 0 .647.524 1.172 1.171 1.172z"/>
    <path fill="#fff" d="M1.172 60h4.453c.647 0 1.172-.525 1.172-1.172 0-.647-.525-1.172-1.172-1.172H2.344v-7.04l8.046 3.877c.32.155.696.155 1.017 0l8.046-3.877v7.04h-3.281c-.647 0-1.172.525-1.172 1.172 0 .647.525 1.172 1.172 1.172h4.453c.647 0 1.172-.525 1.172-1.172V46.406c0-.647-.525-1.172-1.172-1.172h-3.867V41.72c0-.647-.525-1.172-1.172-1.172H6.21c-.647 0-1.172.525-1.172 1.172v3.515H1.172C.525 45.234 0 45.76 0 46.406v12.422C0 59.475.525 60 1.172 60zm6.21-17.11h7.032v2.344H7.383v-2.343zm-5.038 4.688h17.11v.436l-8.556 4.123-8.554-4.123v-.436z"/>
</svg>
