<svg xmlns="http://www.w3.org/2000/svg" width="20" height="20" fill="none" viewBox="0 0 20 20">
    <g clip-path="url(#clip0)">
        <path fill="#fff" d="M19.898.82c-.089-.079-.215-.097-.323-.047L.173 9.787c-.104.049-.172.153-.173.268-.001.116.064.221.167.272l5.491 2.695c.1.049.22.038.31-.03l5.34-3.99-4.192 4.311c-.06.062-.09.146-.083.232l.417 5.434c.01.12.09.223.205.261.03.01.062.015.093.015.085 0 .168-.037.226-.104l2.915-3.377 3.602 1.722c.079.037.169.039.248.004.08-.035.14-.102.166-.184l5.081-16.183c.036-.113.001-.236-.088-.314z"/>
    </g>
    <defs>
        <clipPath id="clip0">
            <path fill="#fff" d="M0 0H20V20H0z"/>
        </clipPath>
    </defs>
</svg>
