<svg xmlns="http://www.w3.org/2000/svg" width="60" height="60" fill="none" viewBox="0 0 60 60">
    <path fill="#fff" d="M25.212 48.83v-2.345-.027c-.043-1.815-.087-3.69-.607-5.645-1.187-4.444-3.76-6.898-8.603-8.205-.133-.036-.305-.053-.425-.122-.1-.057-.17-.216-.229-.311l-3.051-4.952c-.565-.922-1.458-1.569-2.514-1.821l-.732-9.448c-.172-2.203-1.87-3.869-3.95-3.873h-.008c-2.108 0-3.808 1.665-3.957 3.876L.718 22.18c-.044.646.445 1.205 1.09 1.248.645.043 1.205-.445 1.248-1.09l.419-6.224c.065-.964.76-1.69 1.618-1.69h.004c.974.003 1.551.863 1.618 1.712l.728 9.4c-.252.092-.496.21-.73.355-1.904 1.173-2.5 3.678-1.33 5.584l4.947 8.03c.34.55 1.061.722 1.612.383.551-.34.723-1.062.384-1.613L7.38 30.246c-.495-.805-.242-1.864.563-2.36.385-.237.856-.31 1.295-.205.446.106.823.378 1.062.768l3.052 4.953c.612.997 1.067 1.207 1.962 1.448l.077.02c4.652 1.256 6.142 3.526 6.95 6.547.447 1.68.488 3.409.528 5.081v2.189H12.27v-.176c0-3.622-3.574-6.676-5.938-8.697-.354-.303-.689-.589-.958-.832l-.045-.041c-2.191-1.988-3.098-2.81-2.976-6.142.024-.647-.482-1.19-1.128-1.214-.648-.026-1.19.482-1.214 1.129-.162 4.42 1.391 5.83 3.743 7.963l.046.041c.295.267.642.564 1.009.878 2.037 1.741 5.117 4.373 5.117 6.915v.318c-1.182.382-2.04 1.493-2.04 2.8v4.258c0 1.622 1.32 2.941 2.942 2.941h13.48c1.623 0 2.943-1.32 2.943-2.942V51.63c0-1.307-.857-2.418-2.04-2.8zm-.304 7.057c0 .33-.268.598-.598.598H10.83c-.325 0-.6-.274-.6-.598v-4.258c0-.324.275-.598.6-.598h13.48c.324 0 .598.274.598.598v4.258zM59.988 32.714c0-.012 0-.024-.002-.036l-1.122-16.721c-.149-2.211-1.85-3.876-3.957-3.876h-.009c-2.08.004-3.777 1.67-3.95 3.874l-.731 9.447c-1.056.252-1.949.899-2.513 1.818l-3.053 4.957c-.058.094-.128.252-.228.31-.12.068-.291.085-.424.121-4.844 1.307-7.417 3.761-8.604 8.206-.52 1.953-.565 3.83-.607 5.644v2.371c-1.182.382-2.04 1.493-2.04 2.8v4.258c0 1.622 1.32 2.941 2.942 2.941h13.48c1.623 0 2.943-1.32 2.943-2.941v-4.258c0-1.307-.858-2.418-2.04-2.8v-.318c0-2.542 3.08-5.174 5.117-6.915.367-.314.714-.61 1.01-.878l.045-.041c2.352-2.133 3.905-3.542 3.743-7.963zM49.77 55.886c0 .324-.274.598-.598.598H35.69c-.325 0-.6-.274-.6-.598v-4.258c0-.324.275-.598.6-.598h13.48c.324 0 .598.274.598.598v4.258zM54.67 38.94l-.044.04c-.27.244-.604.53-.959.833-2.364 2.02-5.937 5.075-5.937 8.697v.176H37.13v-2.188c.04-1.673.081-3.403.529-5.082.807-3.021 2.297-5.29 6.95-6.547l.077-.02c.894-.241 1.35-.451 1.96-1.446l3.054-4.957c.238-.387.615-.66 1.062-.766.162-.039.326-.053.488-.045h.019c.276.017.546.101.788.25.389.24.662.618.768 1.066.107.447.034.906-.205 1.293l-4.947 8.03c-.339.551-.167 1.273.384 1.613.55.34 1.273.168 1.612-.383l4.946-8.03c.568-.92.742-2.008.49-3.065-.25-1.057-.897-1.952-1.82-2.52-.233-.143-.477-.262-.729-.354l.728-9.4c.067-.848.644-1.71 1.618-1.711h.004c.858 0 1.554.725 1.618 1.689l1.122 16.703c.118 3.316-.79 4.14-2.977 6.124z"/>
    <path fill="#fff" d="M14.463 24.856h5.174c-.13.66-.2 1.338-.2 2.026v1.853c0 .647.525 1.172 1.172 1.172h18.782c.647 0 1.172-.525 1.172-1.172v-1.853c0-.688-.07-1.366-.2-2.026h5.177c.647 0 1.172-.525 1.172-1.172V21.83c0-3.587-1.844-6.906-4.805-8.842.973-1.243 1.556-2.805 1.556-4.502 0-4.034-3.283-7.315-7.318-7.315-2.547 0-4.829 1.307-6.144 3.336-1.314-2.03-3.596-3.336-6.147-3.336-4.034 0-7.317 3.281-7.317 7.315 0 1.697.583 3.26 1.556 4.502-2.96 1.936-4.801 5.255-4.801 8.842v1.853c0 .647.524 1.172 1.171 1.172zm23.756 2.707H21.781v-.681c0-2.996 1.653-5.752 4.262-7.195 1.142.737 2.5 1.167 3.957 1.167 1.457 0 2.815-.43 3.956-1.167 2.61 1.443 4.263 4.2 4.263 7.195v.68zm6.149-5.732v.68h-4.76c-.826-1.804-2.154-3.364-3.847-4.471.53-.677.944-1.448 1.211-2.285 1.144-.13 2.208-.524 3.13-1.12 2.611 1.445 4.266 4.201 4.266 7.196zM36.145 3.515c2.743 0 4.974 2.23 4.974 4.972 0 2.34-1.626 4.306-3.807 4.833-.099-3.38-2.499-6.19-5.685-6.916.796-1.728 2.539-2.889 4.518-2.889zM30 8.563c2.742 0 4.974 2.23 4.974 4.972 0 2.743-2.231 4.975-4.974 4.975-2.742 0-4.974-2.232-4.974-4.975 0-2.742 2.232-4.972 4.974-4.972zm-6.145-5.048c1.982 0 3.725 1.161 4.519 2.889-3.187.726-5.587 3.536-5.686 6.916-2.181-.527-3.807-2.493-3.807-4.833 0-2.741 2.231-4.972 4.974-4.972zm-8.22 18.316c0-2.996 1.654-5.752 4.262-7.195.923.596 1.987.99 3.13 1.119.268.837.682 1.608 1.212 2.285-1.693 1.107-3.02 2.667-3.847 4.472h-4.757v-.681zM1.535 28.681c.647 0 1.172-.528 1.172-1.175s-.525-1.172-1.172-1.172c-.647 0-1.172.525-1.172 1.172v.007c0 .647.525 1.168 1.172 1.168z"/>
</svg>
