<svg xmlns="http://www.w3.org/2000/svg" width="168" height="38" fill="none" viewBox="0 0 168 38">
    <path fill="url(#paint0_linear)" d="M11.167 13.568C6.234 14.9 2.556 18.9 1.333 20.735l.5.166c2.934-4 7.445-6.555 9.334-7.333z"/>
    <path fill="url(#paint1_linear)" stroke="url(#paint2_linear)" stroke-width=".2" d="M3 5.735C-.066 7.2.834 11.123 1.667 12.9l9.667-4.166 7.333-1 5.833-1L25 6.4c-1.2-.8-3.389-1.555-4.333-1.833-2-.667-7.611-.611-10.167-.5C6.234 4.6 3.723 5.4 3 5.735z"/>
    <path fill="url(#paint3_linear)" d="M12.333 12.568l-.666-2.167H9l-4.333 2.167L2 15.235.333 18.568 0 21.235c.533-.667 1.667-2.056 2.167-2.667 1.6-1.6 3.222-2.889 3.833-3.333 1.733-1.2 4.944-2.278 6.333-2.667z"/>
    <path fill="url(#paint4_linear)" stroke="url(#paint5_linear)" stroke-width=".2" d="M11.333 33.901c.8-2.533-.333-5.055-1-6l-3.5-1.333-1-1.833.333-1.334.667-1-.333.167c-3.067 2.133-1.39 5-.167 6.167l.333.166c3.067.934 4.39 3.723 4.667 5z"/>
    <path fill="url(#paint6_linear)" d="M23.5 11.735c-4.267 3.333-7.556.5-8.667-1.334-.5 3.5 2.5 4.167 4.334 4.167 1.466 0 3.5-1.889 4.333-2.833z"/>
    <path fill="url(#paint7_linear)" stroke="url(#paint8_linear)" stroke-width=".2" d="M10 7.235l-1.333-.667C2.133 9.768.833 13.9 1 15.568c.667-4.667 6.278-7.5 9-8.333z"/>
    <path fill="url(#paint9_linear)" stroke="url(#paint10_linear)" stroke-width=".2" d="M11.167 7.734L10 7.234c-6.666 1.734-8.889 6.39-9.166 8.5 1.733-4.933 7.61-7.389 10.333-8z"/>
    <path fill="url(#paint11_linear)" stroke="url(#paint12_linear)" stroke-width=".2" d="M9.167 26.068c-3.733.4-3.333-2.056-2.667-3.333C3.834 27 7.945 27.957 10.334 27.9c.4-.133.944-.833 1.166-1.166l-1.5-1-.833.333z"/>
    <path fill="url(#paint13_linear)" d="M.5 17.235c1.6-5.067 8.556-7.778 11.834-8.5.37-.864 1.433-1.413 2.03-1.623C3.722 8.614.687 14.486.5 17.235z"/>
    <path stroke="url(#paint14_linear)" stroke-width=".2" d="M14.5 7.068c-.041.012-.087.027-.136.044m0 0c-.597.21-1.66.76-2.03 1.623C9.056 9.457 2.1 12.168.5 17.235c.187-2.749 3.222-8.62 13.864-10.123z"/>
    <path fill="url(#paint15_linear)" stroke="url(#paint16_linear)" stroke-width=".2" d="M12 10.4c-.133-.933.167-1.5.333-1.666C1.8 11.134-.167 17.18.167 19.901c1.6-6.4 8.555-9 11.833-9.5z"/>
    <path fill="url(#paint17_linear)" stroke="url(#paint18_linear)" stroke-width=".2" d="M11.667 10.401c.133 3.334 3.056 4.39 4.5 4.5l-1.667-.833-.666-1-.667-1.833.167-1.334 1.833-1.666 6.833-.5 1.834-.5 1-.667c-.8.133-2.111.278-2.667.333-.267 0-3.667-.11-5.333-.166-1.067 0-2.223.222-2.667.333-2.267.8-2.611 2.555-2.5 3.333z"/>
    <path fill="url(#paint19_linear)" stroke="url(#paint20_linear)" stroke-width=".2" d="M14.167 9.735c-1.6 3.333 1 4.833 2.5 5.166-3.2-.266-3.889-3-3.833-4.333.133-2.267 2.5-3.056 3.666-3.167h5.167c1.333 0 2.667-.555 3.167-.833-.534.933-2.222 1.389-3 1.5-.267.133-3.222.167-4.667.167-1.467-.134-2.61.944-3 1.5z"/>
    <circle cx="19.5" cy="9.401" r=".667" fill="#FB9102"/>
    <path fill="#FBBD51" d="M19.58 8.734c-.13.321-.196.886.587.578 0-.193-.118-.578-.587-.578z"/>
    <path fill="url(#paint21_linear)" stroke="url(#paint22_linear)" stroke-width=".2" d="M13.167 28.068c-2.667-.267-5.556-4-6.667-5.834l3.5-2.5 12.5-4.666 2.833-2.5c-.266 1.6-3.666 7.333-5.333 10-2.933 4.933-5.778 5.722-6.833 5.5z"/>
    <path fill="url(#paint23_linear)" d="M8.333 24.735l-1.833-2.5 1-1.334 10.5-3.5 5-2.333 2.167-2.333L24 14.9c-1.667 1.834-3.333 3-4.333 3.5s-4 2-7 3.167c-2.4.933-3.89 2.5-4.334 3.167z"/>
    <path fill="url(#paint24_linear)" stroke="url(#paint25_linear)" stroke-width=".2" d="M7.166 22.235c-3.733 2.666-1.555 5.666 0 6.833-2.266-.133-3.833-1.611-4.333-2.333L2.5 25.9l-.167-.833.833-2.833 2.167-1.667L10 18.901l6.833-1.666 5.834-2.667 1.666-1.167 1.167-1.5.5-1.166c-.933 3.866-5.722 6.61-8 7.5-2.133.8-8.111 3-10.834 4z"/>
    <path fill="url(#paint26_linear)" stroke="url(#paint27_linear)" stroke-width=".2" d="M9.5 19.568c-7.2 1.6-7.445 5.444-6.667 7.167-2-3.334.167-5.723 1.5-6.5 1.733-1.2 5.278-2.167 6.833-2.5 3.334-.534 7.39-1.778 9-2.334 3.734-.933 5.445-3.5 5.834-4.666-.667 3.6-6.834 6.166-9.834 7-1.333.4-5 1.389-6.666 1.833z"/>
    <path fill="#292C33" d="M35.24 10.096c0-.608.2-1.12.6-1.536.416-.416.96-.624 1.632-.624.672 0 1.208.208 1.608.624.416.416.624.928.624 1.536s-.208 1.12-.624 1.536c-.4.416-.936.624-1.608.624s-1.216-.208-1.632-.624c-.4-.416-.6-.928-.6-1.536zm4.272 14.88c-.176.032-.44.072-.792.12-.336.064-.68.096-1.032.096s-.672-.024-.96-.072c-.272-.048-.504-.144-.696-.288-.192-.144-.344-.336-.456-.576-.096-.256-.144-.584-.144-.984v-9.768c.176-.032.432-.072.768-.12.352-.064.704-.096 1.056-.096.352 0 .664.024.936.072.288.048.528.144.72.288.192.144.336.344.432.6.112.24.168.56.168.96v9.768zm11.19-7.368c0-.496-.144-.856-.432-1.08-.272-.24-.648-.36-1.128-.36-.32 0-.64.04-.96.12-.304.08-.568.2-.792.36v8.328c-.16.048-.416.096-.768.144-.336.048-.688.072-1.056.072-.352 0-.672-.024-.96-.072-.272-.048-.504-.144-.696-.288-.192-.144-.344-.336-.456-.576-.096-.256-.144-.584-.144-.984v-7.2c0-.432.088-.784.264-1.056.192-.272.448-.52.768-.744.544-.384 1.224-.696 2.04-.936.832-.24 1.752-.36 2.76-.36 1.808 0 3.2.4 4.176 1.2.976.784 1.464 1.88 1.464 3.288v7.512c-.16.048-.416.096-.768.144-.336.048-.688.072-1.056.072-.352 0-.672-.024-.96-.072-.272-.048-.504-.144-.696-.288-.192-.144-.344-.336-.456-.576-.096-.256-.144-.584-.144-.984v-5.664zm63.379-4.632c.656 0 1.296.096 1.92.288.64.176 1.192.448 1.656.816.48-.32 1.016-.584 1.608-.792.608-.208 1.336-.312 2.184-.312.608 0 1.2.08 1.776.24.592.16 1.112.416 1.56.768.464.336.832.792 1.104 1.368.272.56.408 1.248.408 2.064v7.56c-.16.048-.416.096-.768.144-.336.048-.688.072-1.056.072-.352 0-.672-.024-.96-.072-.272-.048-.504-.144-.696-.288-.192-.144-.344-.336-.456-.576-.096-.256-.144-.584-.144-.984v-5.736c0-.48-.136-.824-.408-1.032-.272-.224-.64-.336-1.104-.336-.224 0-.464.056-.72.168-.256.096-.448.2-.576.312.016.064.024.128.024.192v8.136c-.176.048-.44.096-.792.144-.336.048-.68.072-1.032.072s-.672-.024-.96-.072c-.272-.048-.504-.144-.696-.288-.192-.144-.344-.336-.456-.576-.096-.256-.144-.584-.144-.984v-5.736c0-.48-.152-.824-.456-1.032-.288-.224-.64-.336-1.056-.336-.288 0-.536.048-.744.144-.208.08-.384.16-.528.24v8.424c-.16.048-.416.096-.768.144-.336.048-.688.072-1.056.072-.352 0-.672-.024-.96-.072-.272-.048-.504-.144-.696-.288-.192-.144-.344-.336-.456-.576-.096-.256-.144-.584-.144-.984v-7.248c0-.432.088-.776.264-1.032.192-.256.448-.496.768-.72.544-.384 1.216-.696 2.016-.936.816-.24 1.664-.36 2.544-.36zm22.073 12.408c-.944 0-1.824-.128-2.64-.384-.8-.272-1.504-.672-2.112-1.2-.592-.528-1.064-1.192-1.416-1.992-.336-.8-.504-1.736-.504-2.808 0-1.056.168-1.96.504-2.712.352-.768.808-1.392 1.368-1.872.56-.496 1.2-.856 1.92-1.08.72-.24 1.456-.36 2.208-.36.848 0 1.616.128 2.304.384.704.256 1.304.608 1.8 1.056.512.448.904.984 1.176 1.608.288.624.432 1.304.432 2.04 0 .544-.152.96-.456 1.248-.304.288-.728.472-1.272.552l-5.928.888c.176.528.536.928 1.08 1.2.544.256 1.168.384 1.872.384.656 0 1.272-.08 1.848-.24.592-.176 1.072-.376 1.44-.6.256.16.472.384.648.672.176.288.264.592.264.912 0 .72-.336 1.256-1.008 1.608-.512.272-1.088.456-1.728.552-.64.096-1.24.144-1.8.144zm-.672-9.432c-.384 0-.72.064-1.008.192-.272.128-.496.296-.672.504-.176.192-.312.416-.408.672-.08.24-.128.488-.144.744l4.104-.672c-.048-.32-.224-.64-.528-.96-.304-.32-.752-.48-1.344-.48zm16.268 1.656c0-.496-.144-.856-.432-1.08-.272-.24-.648-.36-1.128-.36-.32 0-.64.04-.96.12-.304.08-.568.2-.792.36v8.328c-.16.048-.416.096-.768.144-.336.048-.688.072-1.056.072-.352 0-.672-.024-.96-.072-.272-.048-.504-.144-.696-.288-.192-.144-.344-.336-.456-.576-.096-.256-.144-.584-.144-.984v-7.2c0-.432.088-.784.264-1.056.192-.272.448-.52.768-.744.544-.384 1.224-.696 2.04-.936.832-.24 1.752-.36 2.76-.36 1.808 0 3.2.4 4.176 1.2.976.784 1.464 1.88 1.464 3.288v7.512c-.16.048-.416.096-.768.144-.336.048-.688.072-1.056.072-.352 0-.672-.024-.96-.072-.272-.048-.504-.144-.696-.288-.192-.144-.344-.336-.456-.576-.096-.256-.144-.584-.144-.984v-5.664zm11.88 3.384c0 .416.128.712.384.888.272.176.648.264 1.128.264.24 0 .488-.016.744-.048.256-.048.48-.104.672-.168.144.176.264.376.36.6.112.208.168.464.168.768 0 .608-.232 1.104-.696 1.488-.448.384-1.248.576-2.4.576-1.408 0-2.496-.32-3.264-.96-.752-.64-1.128-1.68-1.128-3.12V11.008c.176-.048.424-.096.744-.144.336-.064.688-.096 1.056-.096.704 0 1.248.128 1.632.384.4.24.6.76.6 1.56v1.536h3.144c.096.176.184.4.264.672.096.256.144.544.144.864 0 .56-.128.968-.384 1.224-.24.24-.568.36-.984.36h-2.184v3.624z"/>
    <path fill="#0C80EF" d="M69.038 10.456c.112.176.208.416.288.72.096.288.144.592.144.912 0 .624-.136 1.072-.408 1.344-.256.256-.608.384-1.056.384h-5.04v2.712h5.256c.128.176.232.408.312.696.096.288.144.592.144.912 0 .608-.136 1.048-.408 1.32-.256.256-.608.384-1.056.384h-4.2v5.064c-.176.048-.456.096-.84.144-.368.048-.736.072-1.104.072-.368 0-.696-.032-.984-.096-.272-.048-.504-.144-.696-.288-.192-.144-.336-.344-.432-.6-.096-.256-.144-.592-.144-1.008v-10.44c0-.688.2-1.232.6-1.632.4-.4.944-.6 1.632-.6h7.992zm3.13-.36c0-.608.2-1.12.6-1.536.416-.416.96-.624 1.632-.624.672 0 1.208.208 1.608.624.416.416.624.928.624 1.536s-.208 1.12-.624 1.536c-.4.416-.936.624-1.608.624s-1.216-.208-1.632-.624c-.4-.416-.6-.928-.6-1.536zm4.272 14.88c-.176.032-.44.072-.792.12-.336.064-.68.096-1.032.096s-.672-.024-.96-.072c-.272-.048-.504-.144-.696-.288-.192-.144-.344-.336-.456-.576-.096-.256-.144-.584-.144-.984v-9.768c.176-.032.432-.072.768-.12.352-.064.704-.096 1.056-.096.352 0 .664.024.936.072.288.048.528.144.72.288.192.144.336.344.432.6.112.24.168.56.168.96v9.768zm13.638-3.456c0 1.216-.456 2.168-1.368 2.856-.912.688-2.256 1.032-4.032 1.032-.672 0-1.296-.048-1.872-.144-.576-.096-1.072-.24-1.488-.432-.4-.208-.72-.464-.96-.768-.224-.304-.336-.664-.336-1.08 0-.384.08-.704.24-.96.16-.272.352-.496.576-.672.464.256.992.488 1.584.696.608.192 1.304.288 2.088.288.496 0 .872-.072 1.128-.216.272-.144.408-.336.408-.576 0-.224-.096-.4-.288-.528-.192-.128-.512-.232-.96-.312l-.72-.144c-1.392-.272-2.432-.696-3.12-1.272-.672-.592-1.008-1.432-1.008-2.52 0-.592.128-1.128.384-1.608.256-.48.616-.88 1.08-1.2.464-.32 1.016-.568 1.656-.744.656-.176 1.376-.264 2.16-.264.592 0 1.144.048 1.656.144.528.08.984.208 1.368.384.384.176.688.408.912.696.224.272.336.6.336.984 0 .368-.072.688-.216.96-.128.256-.296.472-.504.648-.128-.08-.32-.16-.576-.24-.256-.096-.536-.176-.84-.24-.304-.08-.616-.144-.936-.192-.304-.048-.584-.072-.84-.072-.528 0-.936.064-1.224.192-.288.112-.432.296-.432.552 0 .176.08.32.24.432.16.112.464.216.912.312l.744.168c1.536.352 2.624.84 3.264 1.464.656.608.984 1.4.984 2.376zm14.692 3.456c-.16.048-.416.096-.768.144-.336.048-.688.072-1.056.072-.352 0-.672-.024-.96-.072-.272-.048-.504-.144-.696-.288-.192-.144-.344-.336-.456-.576-.096-.256-.144-.584-.144-.984v-5.328c0-.656-.168-1.112-.504-1.368-.32-.272-.72-.408-1.2-.408-.32 0-.624.04-.912.12-.288.08-.52.176-.696.288v8.4c-.16.048-.416.096-.768.144-.336.048-.688.072-1.056.072-.352 0-.672-.024-.96-.072-.272-.048-.504-.144-.696-.288-.192-.144-.344-.336-.456-.576-.096-.256-.144-.584-.144-.984V9.352c.176-.032.432-.072.768-.12.352-.064.704-.096 1.056-.096.352 0 .664.024.936.072.288.048.528.144.72.288.192.144.336.344.432.6.112.24.168.56.168.96v2.352c.208-.08.52-.168.936-.264.432-.112.904-.168 1.416-.168 1.584 0 2.816.4 3.696 1.2.896.784 1.344 1.96 1.344 3.528v7.272z"/>
    <defs>
        <linearGradient id="paint0_linear" x1="10" x2="2" y1="14.068" y2="20.401" gradientUnits="userSpaceOnUse">
            <stop stop-color="#F9DAE2"/>
            <stop offset="1" stop-color="#F9DAE2" stop-opacity="0"/>
        </linearGradient>
        <linearGradient id="paint1_linear" x1="29" x2="2.5" y1="5.901" y2="10.068" gradientUnits="userSpaceOnUse">
            <stop offset=".171" stop-color="#39F8DE"/>
            <stop offset=".348" stop-color="#08D7F7"/>
            <stop offset=".545" stop-color="#11A9FA"/>
            <stop offset="1" stop-color="#3A42E5"/>
            <stop offset="1" stop-color="#3552F4"/>
        </linearGradient>
        <linearGradient id="paint2_linear" x1="23.667" x2="2.5" y1="6.235" y2="6.735" gradientUnits="userSpaceOnUse">
            <stop stop-color="#3AF7E2"/>
            <stop offset=".125" stop-color="#04DEFA"/>
            <stop offset=".455" stop-color="#14A4FB"/>
            <stop offset="1" stop-color="#3159F7"/>
        </linearGradient>
        <linearGradient id="paint3_linear" x1="10.667" x2="2.5" y1="12.068" y2="16.901" gradientUnits="userSpaceOnUse">
            <stop stop-color="#F9DAE2"/>
            <stop offset="1" stop-color="#F9DAE2" stop-opacity="0"/>
        </linearGradient>
        <linearGradient id="paint4_linear" x1="8.185" x2="8.185" y1="22.401" y2="33.901" gradientUnits="userSpaceOnUse">
            <stop stop-color="#4D1691"/>
            <stop offset="1" stop-color="#8B36D9"/>
        </linearGradient>
        <linearGradient id="paint5_linear" x1="7.333" x2="11.166" y1="23.401" y2="32.901" gradientUnits="userSpaceOnUse">
            <stop stop-color="#571B9C"/>
            <stop offset="1" stop-color="#8030CD"/>
        </linearGradient>
        <linearGradient id="paint6_linear" x1="14.5" x2="25.333" y1="11.901" y2="13.735" gradientUnits="userSpaceOnUse">
            <stop stop-color="#FBEBE3"/>
            <stop offset="1" stop-color="#FCF9F3" stop-opacity="0"/>
        </linearGradient>
        <linearGradient id="paint7_linear" x1="8.667" x2="1.833" y1="7.068" y2="12.568" gradientUnits="userSpaceOnUse">
            <stop stop-color="#FABA31"/>
            <stop offset="1" stop-color="#FB7130"/>
        </linearGradient>
        <linearGradient id="paint8_linear" x1="9.333" x2="1.5" y1="5.735" y2="13.735" gradientUnits="userSpaceOnUse">
            <stop stop-color="#FABA31"/>
            <stop offset="1" stop-color="#F67730"/>
        </linearGradient>
        <linearGradient id="paint9_linear" x1="10.167" x2="2" y1="7.568" y2="13.568" gradientUnits="userSpaceOnUse">
            <stop stop-color="#F7A42C"/>
            <stop offset="1" stop-color="#ED5F15"/>
        </linearGradient>
        <linearGradient id="paint10_linear" x1="9.5" x2="1.5" y1="7.068" y2="14.068" gradientUnits="userSpaceOnUse">
            <stop stop-color="#F69E2A"/>
            <stop offset="1" stop-color="#ED5F15"/>
        </linearGradient>
        <linearGradient id="paint11_linear" x1="8.566" x2="8.566" y1="22.735" y2="27.904" gradientUnits="userSpaceOnUse">
            <stop stop-color="#421284"/>
            <stop offset="1" stop-color="#5C15A1"/>
        </linearGradient>
        <linearGradient id="paint12_linear" x1="7" x2="6.667" y1="24.401" y2="26.568" gradientUnits="userSpaceOnUse">
            <stop stop-color="#4D1390"/>
            <stop offset="1" stop-color="#57149B"/>
        </linearGradient>
        <linearGradient id="paint13_linear" x1="9.834" x2="1.167" y1="8.901" y2="16.068" gradientUnits="userSpaceOnUse">
            <stop stop-color="#FE6347"/>
            <stop offset="1" stop-color="#F92143"/>
        </linearGradient>
        <linearGradient id="paint14_linear" x1="8.334" x2=".667" y1="7.568" y2="15.401" gradientUnits="userSpaceOnUse">
            <stop stop-color="#FE6347"/>
            <stop offset="1" stop-color="#F92643"/>
        </linearGradient>
        <linearGradient id="paint15_linear" x1="10" x2=".833" y1="10.234" y2="17.734" gradientUnits="userSpaceOnUse">
            <stop stop-color="#DF434E"/>
            <stop offset="1" stop-color="#F21543"/>
        </linearGradient>
        <linearGradient id="paint16_linear" x1="11" x2=".5" y1="9.901" y2="18.567" gradientUnits="userSpaceOnUse">
            <stop stop-color="#DF434E"/>
            <stop offset="1" stop-color="#F21543"/>
        </linearGradient>
        <linearGradient id="paint17_linear" x1="20.667" x2="12" y1="7.068" y2="11.901" gradientUnits="userSpaceOnUse">
            <stop stop-color="#F2E175"/>
            <stop offset=".501" stop-color="#F9A646"/>
            <stop offset="1" stop-color="#FE6E1D"/>
        </linearGradient>
        <linearGradient id="paint18_linear" x1="19.5" x2="12.667" y1="6.568" y2="12.735" gradientUnits="userSpaceOnUse">
            <stop stop-color="#F2E175"/>
            <stop offset=".531" stop-color="#FB9136"/>
            <stop offset="1" stop-color="#FE7220"/>
        </linearGradient>
        <linearGradient id="paint19_linear" x1="18.834" x2="15.167" y1="7.901" y2="15.068" gradientUnits="userSpaceOnUse">
            <stop stop-color="#F7BB08"/>
            <stop offset=".466" stop-color="#FF7800"/>
            <stop offset="1" stop-color="#F26010"/>
        </linearGradient>
        <linearGradient id="paint20_linear" x1="17.501" x2="13.667" y1="7.068" y2="13.068" gradientUnits="userSpaceOnUse">
            <stop stop-color="#F7BB08"/>
            <stop offset=".478" stop-color="#FE8301"/>
            <stop offset="1" stop-color="#F5650D"/>
        </linearGradient>
        <linearGradient id="paint21_linear" x1="24.333" x2="11.5" y1="13.901" y2="27.234" gradientUnits="userSpaceOnUse">
            <stop stop-color="#12ACF3"/>
            <stop offset=".364" stop-color="#246CE9"/>
            <stop offset=".59" stop-color="#3641D4"/>
            <stop offset="1" stop-color="#460EBA"/>
        </linearGradient>
        <linearGradient id="paint22_linear" x1="24.5" x2="13.167" y1="14.401" y2="27.068" gradientUnits="userSpaceOnUse">
            <stop stop-color="#13ACF2"/>
            <stop offset=".543" stop-color="#256CEB"/>
            <stop offset="1" stop-color="#3E20BD"/>
        </linearGradient>
        <linearGradient id="paint23_linear" x1="22.667" x2="8" y1="15.235" y2="23.568" gradientUnits="userSpaceOnUse">
            <stop stop-color="#2E50DE"/>
            <stop offset="1" stop-color="#311092"/>
        </linearGradient>
        <linearGradient id="paint24_linear" x1="18.5" x2="4.666" y1="15.568" y2="28.735" gradientUnits="userSpaceOnUse">
            <stop stop-color="#F24292"/>
            <stop offset=".662" stop-color="#C53398"/>
            <stop offset="1" stop-color="#8C26A5"/>
        </linearGradient>
        <linearGradient id="paint25_linear" x1="20.666" x2="3.333" y1="16.401" y2="26.901" gradientUnits="userSpaceOnUse">
            <stop stop-color="#F24292"/>
            <stop offset=".467" stop-color="#D13796"/>
            <stop offset="1" stop-color="#9127A4"/>
        </linearGradient>
        <linearGradient id="paint26_linear" x1="24.833" x2="2.5" y1="12.735" y2="24.568" gradientUnits="userSpaceOnUse">
            <stop stop-color="#D45D95"/>
            <stop offset=".501" stop-color="#EE4FA8"/>
            <stop offset="1" stop-color="#D14EB6"/>
        </linearGradient>
        <linearGradient id="paint27_linear" x1="23.166" x2="2.166" y1="13.735" y2="25.401" gradientUnits="userSpaceOnUse">
            <stop stop-color="#D85B98"/>
            <stop offset="1" stop-color="#D24EB6"/>
        </linearGradient>
    </defs>
</svg>
